<svg width="8" height="8" viewBox="0 0 512 512" xmlns="http://www.w3.org/2000/svg">
  <path d="M477.867 341.333C496.718 341.333 512 356.615 512 375.467V477.867C512 496.718 496.718 512 477.867 512L375.467 512C356.615 512 341.333 496.718 341.333 477.867V375.467C341.333 356.615 356.615 341.333 375.467 341.333H477.867Z"/>
  <path d="M136.533 1.49202e-06C155.385 6.67999e-07 170.667 15.282 170.667 34.1333V136.533C170.667 155.385 155.385 170.667 136.533 170.667H34.1334C15.282 170.667 1.04542e-05 155.385 9.63017e-06 136.533L5.15413e-06 34.1333C4.33011e-06 15.282 15.282 6.79208e-06 34.1333 5.96806e-06L136.533 1.49202e-06Z"/>
  <path d="M502.003 180.664C508.404 174.263 512 165.581 512 156.528V34.1333C512 15.282 496.718 -8.24017e-07 477.867 0L375.467 4.47604e-06C356.615 5.30006e-06 341.333 15.282 341.333 34.1333V136.533C341.333 155.385 326.051 170.667 307.2 170.667H184.805C175.752 170.667 167.07 174.263 160.669 180.664L9.99742 331.336C3.59618 337.737 -5.89957e-07 346.419 0 355.472L7.97636e-06 477.867C9.20488e-06 496.718 15.282 512 34.1333 512L136.533 512C155.385 512 170.667 496.718 170.667 477.867L170.667 375.467C170.667 356.615 185.949 341.333 204.8 341.333H327.195C336.248 341.333 344.93 337.737 351.331 331.336L502.003 180.664Z"/>
</svg>
